# xmcd
#
# Track frame offsets:
#	151
#	12498
#	25120
#
# Disc length: 499 seconds
#
# Revision: 0
# Processed by: cddbd v1.5.2PL0 Copyright (c) Steve Scherf et al.
# Submitted via: audiograbber 1.83.01
#
DISCID=1901f103
DTITLE=Kitty, Daisy and Lewis - Mean Son Of A Gun
DYEAR=2006
DGENRE=Rock and Roll
TTITLE0=Mean Son Of A Gun
TTITLE1=Ooo Wee
TTITLE2=Ride
EXTD=
EXTT0=
EXTT1=
EXTT2=
PLAYORDER=
